PathFileType	4	(X/Y/Z)	/Users/itak/Documents/Research/Walk-IL/dataset/trc/00523_00183.trc
DataRate	CameraRate	NumFrames	NumMarkers	Units	OrigDataRate	OrigDataStartFrame	OrigNumFrames
100.000000	100.000000	4	56	mm	100.000000	448	512
Frame#	Time	RPSI			LPSI			L3			STRN			T10			C7			CLAV			RBAK			LBAK			LSHO			LUPA			LAEL			LAOL			LWTS			LWPS			LFRA			LHPS			LHTS			RSHO			RUPA			RAEL			RAOL			RWTS			RWPS			RFRA			RIFD			RHPS			RBHD			LFHD			RFHD			LBHD			LHIP			RHIP			RASI			LASI			LKNE			LTHI			LANK			LTIP			LTOE			LMT1			LMT5			LHEE			RKNE			RTHI			RANK			RTIP			RTOE			RMT1			RMT5			RHEE			RHTS			LIFD			*53			*54			*55			
		X1	Y1	Z1	X2	Y2	Z2	X3	Y3	Z3	X4	Y4	Z4	X5	Y5	Z5	X6	Y6	Z6	X7	Y7	Z7	X8	Y8	Z8	X9	Y9	Z9	X10	Y10	Z10	X11	Y11	Z11	X12	Y12	Z12	X13	Y13	Z13	X14	Y14	Z14	X15	Y15	Z15	X16	Y16	Z16	X17	Y17	Z17	X18	Y18	Z18	X19	Y19	Z19	X20	Y20	Z20	X21	Y21	Z21	X22	Y22	Z22	X23	Y23	Z23	X24	Y24	Z24	X25	Y25	Z25	X26	Y26	Z26	X27	Y27	Z27	X28	Y28	Z28	X29	Y29	Z29	X30	Y30	Z30	X31	Y31	Z31	X32	Y32	Z32	X33	Y33	Z33	X34	Y34	Z34	X35	Y35	Z35	X36	Y36	Z36	X37	Y37	Z37	X38	Y38	Z38	X39	Y39	Z39	X40	Y40	Z40	X41	Y41	Z41	X42	Y42	Z42	X43	Y43	Z43	X44	Y44	Z44	X45	Y45	Z45	X46	Y46	Z46	X47	Y47	Z47	X48	Y48	Z48	X49	Y49	Z49	X50	Y50	Z50	X51	Y51	Z51	X52	Y52	Z52	X53	Y53	Z53	X54	Y54	Z54	X55	Y55	Z55	X56	Y56	Z56	

449	4.48	340.9160461425781	962.3224487304688	635.008056640625	465.2098083496094	963.9982299804688	635.9371948242188	403.1921081542969	1023.182678222656	619.2088012695312	429.6063232421875	1206.2353515625	831.5484619140625	396.2746276855469	1128.990478515625	600.2266235351562	403.2783508300781	1361.32666015625	633.6466674804688	427.1386108398438	1299.327026367188	790.6116333007812	309.5484313964844	1239.103271484375	606.8587646484375	484.0936889648438	1301.704345703125	599.8751831054688	570.9141845703125	1357.317749023438	675.4071655273438	629.4729614257812	1230.418212890625	660.8008422851562	661.9053344726562	1022.437561035156	679.5929565429688	576.8258056640625	1007.37939453125	630.736328125	655.1671752929688	838.7249755859375	786.2571411132812	669.515380859375	798.841796875	701.3788452148438	671.3214111328125	937.9202270507812	701.31396484375	674.0789794921875	747.347900390625	728.4347534179688	677.2020263671875	761.3445434570312	791.9249267578125	265.3216247558594	1364.740600585938	707.6746215820312	204.7613830566406	1298.492309570312	702.5379028320312	153.6924896240234	1034.258666992188	719.932861328125	188.5474853515625	1012.676208496094	670.1414184570312	180.3396759033203	836.2467041015625	831.4327392578125	133.2150726318359	809.0446166992188	758.9176635742188	149.0060119628906	979.3502807617188	725.1396484375	170.0529022216797	677.7158813476562	843.05908203125	130.8450775146484	740.40625	785.6304931640625	317.5805969238281	1517.125	720.9200439453125	500.2926940917969	1594.8046875	752.5297241210938	390.2016906738281	1586.214477539062	816.0272827148438	448.9244079589844	1522.140014648438	629.0516357421875	598.4157104492188	894.7130126953125	744.83740234375	217.3977508544922	864.2694702148438	742.9388427734375	283.8559875488281	911.899169921875	840.1340942382812	526.8038330078125	929.6336059570312	835.4805297851562	555.2398681640625	475.53466796875	765.4644165039062	581.234130859375	631.9537353515625	775.5835571289062	551.3447875976562	47.58202743530273	666.1421508789062	558.3404541015625	326.9020385742188	735.4063720703125	470.4720458984375	35.36557769775391	859.0518798828125	445.6745910644531	41.90108108520508	776.9337158203125	548.8076782226562	40.04081344604492	775.5242309570312	493.2723693847656	44.42904281616211	615.6392211914062	245.3199462890625	477.8634643554688	736.9981689453125	214.3334808349609	737.1788330078125	764.3711547851562	271.1729431152344	45.75328063964844	667.3672485351562	263.7826843261719	334.5447692871094	732.4198608398438	331.8872985839844	39.29914093017578	862.6166381835938	362.7998046875	44.13771057128906	792.3703002929688	265.9698181152344	41.76152420043945	780.8356323242188	313.5138244628906	35.86530685424805	610.9791870117188	154.9018096923828	746.4566650390625	851.3489379882812	653.4436645507812	680.4618530273438	797.0208740234375	nan	nan	nan	nan	nan	nan	nan	nan	nan	
450	4.49	340.3569030761719	962.3887329101562	635.2525634765625	464.7200012207031	964.1102905273438	635.938232421875	402.5530090332031	1023.313049316406	619.2432250976562	429.3310852050781	1206.137329101562	831.8597412109375	395.7367248535156	1128.88720703125	600.60693359375	402.7864379882812	1361.288940429688	634.4022216796875	426.9378051757812	1299.2490234375	791.010986328125	309.2553405761719	1239.238037109375	607.2274780273438	483.579345703125	1301.783813476562	599.8759765625	570.4600219726562	1357.347045898438	675.6609497070312	629.1470336914062	1230.49267578125	661.0317993164062	661.5001831054688	1022.471313476562	679.7733764648438	576.173095703125	1007.536071777344	630.9796142578125	654.9268188476562	838.8905639648438	786.5056762695312	668.7553100585938	798.9161376953125	702.0189208984375	670.9234008789062	937.9808349609375	701.6943359375	674.0789184570312	747.4571533203125	728.9002075195312	676.9611206054688	761.469482421875	792.4480590820312	264.922119140625	1364.744140625	708.2591552734375	204.3586273193359	1298.456176757812	703.0274658203125	153.1838226318359	1034.352416992188	720.3189086914062	188.2860412597656	1012.776733398438	670.1648559570312	179.8573455810547	835.9354248046875	831.2885131835938	132.8241577148438	808.845947265625	758.3654174804688	148.6074829101562	979.23486328125	725.1348876953125	170.0388488769531	677.3265991210938	841.9742431640625	130.4562072753906	740.19482421875	785.0548706054688	316.9730224609375	1517.193603515625	721.6525268554688	500.1138610839844	1594.846801757812	752.6918334960938	390.1204528808594	1586.25244140625	816.587890625	448.7175598144531	1522.053100585938	629.389404296875	598.3872680664062	894.83154296875	744.81689453125	217.0982818603516	864.3091430664062	743.0496215820312	283.6575012207031	911.887451171875	840.3756713867188	526.6552734375	929.6174926757812	835.3705444335938	555.11767578125	475.5098571777344	765.2777709960938	581.0852661132812	631.9747314453125	775.2454833984375	551.3401489257812	47.60054779052734	666.15478515625	558.3067626953125	326.9435729980469	735.2590942382812	470.4495239257812	35.36072540283203	859.0609130859375	445.6600341796875	41.93618392944336	776.9400634765625	548.8076171875	40.06709671020508	775.5197143554688	493.2901306152344	44.44231414794922	615.6420288085938	244.9754791259766	477.8107299804688	737.0792846679688	214.2943115234375	737.1251220703125	764.5384521484375	270.8275756835938	45.55004119873047	667.4002685546875	263.6277160644531	334.4411010742188	732.4216918945312	331.8892517089844	39.30055236816406	862.61669921875	362.758056640625	44.1651496887207	792.3530883789062	265.9700927734375	41.76157760620117	780.8358154296875	313.5190734863281	35.79324340820312	610.9151000976562	155.4659576416016	746.0519409179688	850.6165161132812	653.3834228515625	680.7703857421875	797.3174438476562	nan	nan	nan	nan	nan	nan	nan	nan	nan	
451	4.5	339.9947204589844	962.6089477539062	635.3458251953125	463.952880859375	964.0166625976562	636.2054443359375	402.1375122070312	1023.496643066406	619.2205200195312	429.0532531738281	1206.103881835938	832.2384033203125	395.3087158203125	1128.875610351562	601.0424194335938	402.6331481933594	1361.549438476562	634.1866455078125	426.6767272949219	1299.159790039062	791.2798461914062	308.84912109375	1239.340576171875	607.5635375976562	482.9559020996094	1302.278564453125	600.6323852539062	570.3197021484375	1357.417602539062	676.01953125	628.4404296875	1230.645874023438	661.2667846679688	661.129638671875	1022.598449707031	680.0646362304688	575.5562744140625	1007.713073730469	631.0619506835938	654.608154296875	839.0986328125	786.750732421875	668.3095703125	798.9205932617188	702.4946899414062	670.5518798828125	938.0481567382812	702.0324096679688	673.8342895507812	747.4862060546875	729.2291259765625	676.6705932617188	761.7191162109375	792.8855590820312	264.4109802246094	1364.692016601562	708.8724365234375	204.1156616210938	1298.527587890625	703.3971557617188	152.8714294433594	1034.07080078125	720.7955932617188	187.5020294189453	1012.934814453125	670.09619140625	179.7086181640625	835.568603515625	830.8990478515625	132.4694213867188	808.6836547851562	757.8892822265625	148.4106597900391	979.180908203125	725.0997924804688	169.7523193359375	676.9468994140625	841.1551513671875	130.1192169189453	739.9658203125	784.2970581054688	316.5301513671875	1517.182739257812	722.2953491210938	499.9005737304688	1594.818115234375	752.937744140625	389.8702697753906	1586.378784179688	817.3475952148438	448.2652587890625	1521.666381835938	629.0349731445312	598.0467529296875	894.9904174804688	744.6829223632812	216.4916076660156	864.0767211914062	743.7105102539062	283.3595275878906	911.7886352539062	840.6602783203125	526.4874267578125	929.5525512695312	835.2506713867188	555.1078491210938	475.5678100585938	765.1727294921875	580.8849487304688	632.0036010742188	774.884033203125	551.3471069335938	47.5860595703125	666.1539916992188	558.2740478515625	326.9928894042969	735.1148071289062	470.4313354492188	35.35319137573242	859.0573120117188	445.677001953125	41.89860916137695	776.9380493164062	548.7860717773438	40.07979202270508	775.521484375	493.3249206542969	44.45187759399414	615.6480102539062	244.8241271972656	477.7455139160156	737.1461791992188	214.1745452880859	736.9619750976562	765.0021362304688	271.0505676269531	45.70364379882812	667.3504028320312	263.4605712890625	334.37646484375	732.4253540039062	331.8617248535156	39.28748321533203	862.5606689453125	362.748291015625	44.17035293579102	792.345458984375	265.982666015625	41.76213836669922	780.7968139648438	313.4518737792969	35.73363876342773	610.9326171875	154.3082733154297	745.723876953125	850.314697265625	653.16845703125	680.94580078125	797.9191284179688	nan	nan	nan	nan	nan	nan	nan	nan	nan	
452	4.51	339.4983215332031	962.77734375	635.5664672851562	463.2944641113281	963.9080810546875	636.3091430664062	401.7480773925781	1023.712890625	619.1834106445312	428.6853332519531	1206.046142578125	832.5000610351562	395.015380859375	1129.15576171875	601.0986938476562	401.6682434082031	1361.554809570312	635.2783813476562	426.3827514648438	1299.08544921875	791.5811767578125	308.4324645996094	1239.437255859375	607.9302368164062	482.4178161621094	1302.484985351562	601.0228271484375	570.1116943359375	1357.456909179688	676.3302001953125	627.9199829101562	1230.84521484375	661.4110717773438	660.8385009765625	1022.717834472656	680.4212036132812	574.9987182617188	1007.901489257812	631.3309936523438	654.4026489257812	839.23486328125	787.02587890625	668.0614013671875	798.947509765625	702.7816772460938	670.1414184570312	938.1757202148438	702.3239135742188	673.3154296875	747.694091796875	729.7493286132812	676.4443969726562	761.856689453125	793.2383422851562	264.2043151855469	1364.79638671875	709.2586059570312	203.7719268798828	1298.542846679688	703.821044921875	153.0599822998047	1034.012817382812	720.5877075195312	187.2481231689453	1013.007507324219	670.0457763671875	179.3867492675781	835.2421264648438	830.4906616210938	131.9686279296875	808.6712646484375	757.4988403320312	148.2342376708984	979.1570434570312	724.9814453125	169.2617645263672	676.5165405273438	840.1950073242188	129.7773895263672	739.8569946289062	783.53955078125	316.2671508789062	1517.196166992188	722.8823852539062	499.6696166992188	1594.816650390625	753.0910034179688	389.1893310546875	1586.357666015625	817.49560546875	447.4226684570312	1521.619140625	630.2111206054688	597.8629150390625	895.35302734375	744.8397216796875	215.7517242431641	863.9639282226562	744.4075927734375	282.9556884765625	911.5806274414062	841.2835083007812	525.8616333007812	929.4362182617188	835.0224609375	554.8621215820312	475.5412902832031	764.9246215820312	580.7743530273438	632.05126953125	774.7545166015625	551.2915649414062	47.5191764831543	666.1380004882812	558.3019409179688	327.0546264648438	734.9944458007812	470.4611511230469	35.36129760742188	859.0491333007812	445.7192077636719	41.92572402954102	776.9343872070312	548.7913208007812	40.07038879394531	775.5135498046875	493.2991333007812	44.44688034057617	615.6430053710938	244.6972045898438	477.6747131347656	737.2219848632812	214.2495422363281	736.9678344726562	765.5250244140625	270.7333984375	45.50015258789062	667.3758544921875	263.2569580078125	334.3392639160156	732.5147094726562	332.1377563476562	39.39702224731445	862.450927734375	362.5126342773438	44.04095077514648	792.3489379882812	265.9747924804688	41.75662994384766	780.797119140625	313.4251098632812	35.73306274414062	610.8935546875	154.5000457763672	745.2984008789062	849.283935546875	652.07373046875	680.8521728515625	798.6317749023438	nan	nan	nan	nan	nan	nan	nan	nan	nan	
